<svg width="24" height="24" viewBox="0 0 24 24" fill="none" xmlns="http://www.w3.org/2000/svg">
<path fill-rule="evenodd" clip-rule="evenodd" d="M22.1593 5.22752L20.9893 4.95152L17.8273 8.09552L16.0363 6.27152L19.1203 3.03602L18.8503 1.84802C18.1986 1.62999 17.517 1.51461 16.8298 1.50602C16.0802 1.49449 15.3362 1.63746 14.6443 1.92602C13.9762 2.22843 13.3723 2.65616 12.8653 3.18602C12.3009 3.72063 11.854 4.36683 11.5528 5.08352C10.973 6.50984 10.973 8.10619 11.5528 9.53252C8.42565 12.609 5.33889 15.7263 2.2933 18.8835C1.9783 19.296 1.8283 19.8105 1.8673 20.328C1.89803 20.8846 2.14835 21.4063 2.5633 21.7785C2.7493 21.981 2.9713 22.149 3.2188 22.2705C3.4738 22.383 3.7483 22.4475 4.0258 22.461C4.4998 22.452 4.9543 22.272 5.3068 21.9555C7.6288 19.77 12.0778 15.2805 14.6053 12.6495C15.2908 12.9405 16.0273 13.0905 16.7713 13.089C17.5202 13.0884 18.2614 12.9377 18.9511 12.6458C19.6408 12.3539 20.265 11.9267 20.7868 11.3895C21.8586 10.2964 22.4573 8.82543 22.4533 7.29452C22.4706 6.59398 22.3713 5.89544 22.1593 5.22752ZM4.3993 20.892C4.34156 20.9433 4.27197 20.9794 4.1968 20.997C4.12285 21.0098 4.04725 21.0098 3.9733 20.997C3.89576 20.9852 3.82191 20.956 3.7573 20.9115C3.68796 20.8709 3.62933 20.8144 3.5863 20.7465C3.3763 20.532 3.1798 20.124 3.3763 19.8945C5.4313 17.709 9.6628 13.437 12.3088 10.8255C12.4588 11.0235 12.6238 11.2125 12.8008 11.3895C12.9778 11.574 13.1683 11.745 13.3708 11.901C10.8118 14.526 6.6388 18.747 4.4008 20.892H4.3993ZM21.0763 7.29452C21.0793 8.44202 20.6323 9.54452 19.8283 10.3665C19.026 11.1536 17.9469 11.5944 16.823 11.5944C15.6992 11.5944 14.6201 11.1536 13.8178 10.3665C13.2298 9.75286 12.8281 8.98485 12.6595 8.15184C12.4908 7.31882 12.5622 6.45505 12.8653 5.66102C13.067 5.12062 13.38 4.62858 13.7838 4.21671C14.1877 3.80485 14.6735 3.48233 15.2098 3.27002C15.719 3.05688 16.2658 2.94774 16.8178 2.94902H17.1988L14.4733 5.75852V6.80252L17.3158 9.63152H18.3058L21.0763 6.90752V7.29452ZM4.8598 10.032H7.1563L8.2138 11.1075L9.2308 10.0965L8.2333 9.07952V9.01502L8.3188 6.54152L7.9888 5.88602L3.6988 3.06302L2.8123 3.16202L1.5658 4.43552L1.4668 5.33402L4.2238 9.71102L4.8598 10.0335V10.032ZM3.4423 4.58402L6.9133 6.87002L6.8548 8.55452H5.2408L3.0028 5.01152L3.4423 4.58402ZM14.0998 15.024L15.1108 14.0145L19.7698 18.792C20.1622 19.2045 20.3811 19.752 20.3811 20.3213C20.3811 20.8906 20.1622 21.4381 19.7698 21.8505C19.4747 22.1535 19.0953 22.3605 18.6809 22.4448C18.2664 22.5291 17.8363 22.4867 17.4463 22.323C17.1974 22.2126 16.9742 22.0517 16.7908 21.8505L12.0778 17.046L13.0963 16.029L17.7943 20.82C17.8575 20.8897 17.9361 20.9436 18.0238 20.9775C18.1964 21.0476 18.3896 21.0476 18.5623 20.9775C18.65 20.9436 18.7286 20.8897 18.7918 20.82C18.8575 20.755 18.9086 20.6768 18.9418 20.5905C18.9762 20.5025 18.9945 20.409 18.9958 20.3145C18.9943 20.2202 18.9765 20.1268 18.9433 20.0385C18.9101 19.9523 18.859 19.8741 18.7933 19.809L14.0998 15.024Z" fill="#F7F7F7"/>
</svg>
